# xmcd
#
# Track frame offsets: 
#        150
#        9017
#        20878
#        31340
#        45878
#        55727
#        74626
#        86018
#        97324
#        113514
#        129730
#        142241
#        156426
#        169633
#        184792
#        197941
#        213068
#        228601
#        247349
#        266983
#        281082
#
# Disc length: 3959 seconds
#
# Revision: 0
# Processed by: cddbd v1.5.2PL0 Copyright (c) Steve Scherf et al.
# Submitted via: ExactAudioCopyFreeDBPlugin 1.0
#
DISCID=3e0f7515
DTITLE=Eva Olmerová - Blues samotářky 1
DYEAR=1900
DGENRE=Blues
TTITLE0=Blues samotářky
TTITLE1=Blues železničního mostu
TTITLE2=Čajová růže
TTITLE3=Čekej tiše
TTITLE4=Černá kára
TTITLE5=Druhý břeh
TTITLE6=Jsi dlouhý most
TTITLE7=Matka
TTITLE8=Mosty nadějí
TTITLE9=Můj milý se vrátil
TTITLE10=Můj pláč
TTITLE11=Ó, Boží den
TTITLE12=Paralely
TTITLE13=Počítám hodiny
TTITLE14=Poprchává
TTITLE15=Slunce zhaslo dojetím
TTITLE16=Tam pod nebeskou bání
TTITLE17=Un homme et une femme
TTITLE18=Vnímám tvůj hlas
TTITLE19=Vstává den a modře svítá
TTITLE20=Vzdávám svůj dík
EXTD=
EXTT0=
EXTT1=
EXTT2=
EXTT3=
EXTT4=
EXTT5=
EXTT6=
EXTT7=
EXTT8=
EXTT9=
EXTT10=
EXTT11=
EXTT12=
EXTT13=
EXTT14=
EXTT15=
EXTT16=
EXTT17=
EXTT18=
EXTT19=
EXTT20=
PLAYORDER=
